<svg width="1440" height="1024" viewBox="0 0 1440 1024" xmlns="http://www.w3.org/2000/svg">
  <defs>
    <!-- Grid pattern -->
    <pattern id="grid" x="0" y="0" width="40" height="40" patternUnits="userSpaceOnUse">
      <path d="M 40 0 L 0 0 0 40" fill="none" stroke="#4361ee" stroke-width="0.5" stroke-opacity="0.05"/>
    </pattern>
    
    <!-- Dots pattern -->
    <pattern id="dots" x="0" y="0" width="20" height="20" patternUnits="userSpaceOnUse">
      <circle cx="10" cy="10" r="1" fill="#4361ee" fill-opacity="0.2"/>
    </pattern>
    
    <!-- Gradient for circles -->
    <linearGradient id="circleGradient1" x1="0%" y1="0%" x2="100%" y2="100%">
      <stop offset="0%" stop-color="#4361ee" stop-opacity="0.1"/>
      <stop offset="100%" stop-color="#7209b7" stop-opacity="0.1"/>
    </linearGradient>
    
    <linearGradient id="circleGradient2" x1="0%" y1="0%" x2="100%" y2="100%">
      <stop offset="0%" stop-color="#f72585" stop-opacity="0.1"/>
      <stop offset="100%" stop-color="#4cc9f0" stop-opacity="0.1"/>
    </linearGradient>
  </defs>
  
  <!-- Background -->
  <rect width="100%" height="100%" fill="#f8f9fa"/>
  
  <!-- Patterns -->
  <rect width="100%" height="100%" fill="url(#grid)"/>
  <rect width="100%" height="100%" fill="url(#dots)"/>
  
  <!-- Decorative circles -->
  <circle cx="200" cy="150" r="300" fill="url(#circleGradient1)"/>
  <circle cx="1200" cy="800" r="400" fill="url(#circleGradient2)"/>
  <circle cx="800" cy="100" r="100" fill="url(#circleGradient2)"/>
  <circle cx="100" cy="900" r="150" fill="url(#circleGradient1)"/>
  <circle cx="1300" cy="200" r="200" fill="url(#circleGradient1)"/>
  
  <!-- Small decorative elements -->
  <path d="M 400,300 L 450,350 L 400,400 L 350,350 Z" fill="#4361ee" fill-opacity="0.1"/>
  <path d="M 1000,600 L 1050,650 L 1000,700 L 950,650 Z" fill="#f72585" fill-opacity="0.1"/>
  <path d="M 700,800 L 750,850 L 700,900 L 650,850 Z" fill="#4cc9f0" fill-opacity="0.1"/>
  <path d="M 1200,400 L 1250,450 L 1200,500 L 1150,450 Z" fill="#7209b7" fill-opacity="0.1"/>
</svg> 